<svg width="29" height="42" viewBox="0 0 29 42" fill="none" xmlns="http://www.w3.org/2000/svg">
<path d="M14.2513 4.56708L14.5381 1L20.7883 2.13213L28 3.57791L27.7132 7.14499C27.2944 12.3535 25.3064 17.3028 22.0145 21.3328C19.6958 24.1713 18.0125 27.4806 17.0786 31.0366L14.4619 41L7.34959 39.5393L1 38.4221L3.61672 28.4587C4.55064 24.9027 6.23393 21.5934 8.55264 18.7549C11.8445 14.7249 13.8325 9.77561 14.2513 4.56708Z" fill="#FBBC04"/>
<path d="M20.7883 2.13213L14.5381 1L14.2513 4.56708C13.8325 9.77561 11.8445 14.7249 8.55264 18.7549C6.23393 21.5934 4.55064 24.9027 3.61672 28.4587L1 38.4221L7.34959 39.5393M20.7883 2.13213L20.5014 5.69921C20.0826 10.9077 18.0947 15.8571 14.8028 19.887C12.4841 22.7255 10.8008 26.0348 9.86689 29.5908L7.34959 39.5393M20.7883 2.13213L28 3.57791L27.7132 7.14499C27.2944 12.3535 25.3064 17.3028 22.0145 21.3328C19.6958 24.1713 18.0125 27.4806 17.0786 31.0366L14.4619 41L7.34959 39.5393" stroke="black"/>
<path fill-rule="evenodd" clip-rule="evenodd" d="M9.58051 9.48999C10.4589 8.58899 11 7.35769 11 6C11 3.23858 8.76142 1 6 1C3.23858 1 1 3.23858 1 6C1 7.35769 1.54113 8.58899 2.41949 9.48998L6 16L9.58051 9.48999ZM8.14286 6C8.14286 7.18347 7.18347 8.14286 6 8.14286C4.81653 8.14286 3.85714 7.18347 3.85714 6C3.85714 4.81653 4.81653 3.85714 6 3.85714C7.18347 3.85714 8.14286 4.81653 8.14286 6Z" fill="#34A853"/>
</svg>
